<mxfile host="app.diagrams.net" modified="2024-05-16T14:57:51.486Z" agent="Mozilla/5.0 (X11; Linux x86_64) AppleWebKit/537.36 (KHTML, like Gecko) Chrome/120.0.0.0 Safari/537.36" version="24.4.2" etag="1DRsYdjKakpoqgdku_6R" type="github">
  <diagram name="Page-1" id="e4egVw7q6pbQGeLiYjj5">
    <mxGraphModel>
      <root>
        <mxCell id="0" />
        <mxCell id="1" parent="0" />
      </root>
    </mxGraphModel>
  </diagram>
</mxfile>
